Coordinates
version=1
nRows=30
nColumns=33
inDegrees=yes

Units are S.I. units (second, meters, Newtons, ...)
Angles are in degrees.

endheader
time	ground_thorax_rot_x	ground_thorax_rot_y	ground_thorax_rot_z	ground_thorax_tx	ground_thorax_ty	ground_thorax_tz	clav_prot_r	clav_elev_r	scapula_abduction_r	scapula_elevation_r	scapula_upward_rot_r	scapula_winging_r	shoulder_elv_r	plane_of_elev_r	axial_rot_r	elbow_flexion_r	pro_sup_r	wrist_flex_r	wrist_dev_r	clav_prot_l	clav_elev_l	scapula_abduction_l	scapula_elevation_l	scapula_upward_rot_l	scapula_winging_l	shoulder_elv_l	plane_of_elev_l	axial_rot_l	elbow_flexion_l	pro_sup_l	wrist_flex_l	wrist_dev_l	
4.3400	-34.561170	-24.716621	30.244552	-118.044638	864.639010	-44.588522	26.575304	-45.000000	40.172650	-45.000000	-45.000000	2050.461026	258.668505	159.534588	40.899475	2158.877271	163.673371	16.639325	14.235704	-2.959055	37.993282	-35.361306	-45.000000	-26.640055	3699.215473	-2980.812990	143.575904	180.000000	359.341505	406.685475	10.073801	-25.000000	
4.3500	-34.485303	-24.827013	30.488359	-117.790740	864.091955	-44.491738	26.532875	-45.000000	40.191907	-45.000000	-45.000000	2050.484879	258.648140	159.546417	40.795998	2158.878761	163.568846	16.714694	14.261027	-2.964275	37.982377	-35.318489	-45.000000	-26.881333	3699.124697	-2980.804551	143.575159	180.000000	359.440982	406.684121	9.956438	-25.000000	
4.3600	-34.407628	-24.941996	30.729366	-117.507636	863.573669	-44.392190	26.468186	-45.000000	40.223326	-45.000000	-45.000000	2050.506690	258.622680	159.549867	40.670931	2158.881637	163.452876	16.796664	14.316001	-2.989092	37.982426	-35.270997	-45.000000	-27.120083	3699.035012	-2980.796320	143.571511	180.000000	359.544622	406.676263	9.840997	-25.000000	
4.3700	-34.339046	-25.041336	30.955815	-117.165608	863.114424	-44.285675	26.441766	-45.000000	40.245040	-45.000000	-45.000000	2050.541499	258.597728	159.549609	40.535294	2158.870177	163.317632	16.850009	14.340082	-2.987853	37.973140	-35.241752	-45.000000	-27.299925	3698.962764	-2980.795516	143.566310	180.000000	359.649959	406.669127	9.745203	-25.000000	
4.3800	-34.276386	-25.128946	31.173312	-116.755220	862.718858	-44.174026	26.431794	-45.000000	40.267277	-45.000000	-45.000000	2050.582993	258.565189	159.544806	40.379812	2158.849852	163.160277	16.878042	14.352979	-2.976654	37.956444	-35.227352	-45.000000	-27.436464	3698.898643	-2980.799814	143.559680	180.000000	359.754230	406.655262	9.670366	-25.000000	
4.3900	-34.212509	-25.215102	31.393315	-116.262700	862.393756	-44.059174	26.426361	-45.000000	40.283284	-45.000000	-45.000000	2050.642677	258.538008	159.538814	40.195040	2158.828454	162.975027	16.897179	14.367454	-2.964069	37.948378	-35.219311	-45.000000	-27.532708	3698.840467	-2980.805576	143.555034	180.000000	359.858158	406.626670	9.611658	-25.000000	
4.4000	-34.146478	-25.301403	31.615271	-115.679662	862.136621	-43.945137	26.427092	-45.000000	40.302902	-45.000000	-45.000000	2050.707083	258.504992	159.524385	39.982320	2158.798471	162.764300	16.892382	14.375099	-2.952435	37.930223	-35.211426	-45.000000	-27.589337	3698.781298	-2980.811391	143.552431	180.000000	359.963747	406.578124	9.576952	-25.000000	
4.4100	-34.070092	-25.401042	31.851251	-115.000212	861.939249	-43.836845	26.422801	-45.000000	40.324983	-45.000000	-45.000000	2050.788111	258.478445	159.510034	39.740723	2158.769776	162.527468	16.892881	14.406472	-2.961904	37.929566	-35.189019	-45.000000	-27.619405	3698.715573	-2980.811323	143.552757	180.000000	360.073433	406.501137	9.555380	-25.000000	
4.4200	-33.987052	-25.510939	32.096753	-114.218782	861.791068	-43.739031	26.430912	-45.000000	40.357581	-45.000000	-45.000000	2050.864469	258.441865	159.483603	39.477366	2158.730241	162.267037	16.875461	14.435095	-2.983186	37.919472	-35.172144	-45.000000	-27.616234	3698.656400	-2980.810023	143.559347	180.000000	360.188734	406.395087	9.556724	-25.000000	
4.4300	-33.891342	-25.639026	32.358406	-113.330223	861.680205	-43.655746	26.446524	-45.000000	40.401019	-45.000000	-45.000000	2050.946384	258.403468	159.453367	39.193767	2158.684843	161.983168	16.859916	14.478674	-3.022874	37.919534	-35.156027	-45.000000	-27.590236	3698.605085	-2980.806677	143.571449	180.000000	360.312366	406.257592	9.573395	-25.000000	
4.4400	-33.785781	-25.778320	32.630592	-112.330405	861.594311	-43.590008	26.481529	-45.000000	40.460268	-45.000000	-45.000000	2051.014273	258.348658	159.406810	38.895622	2158.628539	161.678879	16.821722	14.509741	-3.068444	37.902345	-35.157442	-45.000000	-27.535506	3698.572051	-2980.808895	143.586556	180.000000	360.443085	406.093497	9.615495	-25.000000	
4.4500	-33.671681	-25.925393	32.913768	-111.216067	861.521237	-43.543528	26.527735	-45.000000	40.516259	-45.000000	-45.000000	2051.090599	258.289160	159.355146	38.588294	2158.579160	161.354919	16.781781	14.548000	-3.116201	37.895874	-35.177888	-45.000000	-27.464372	3698.557290	-2980.816400	143.592214	180.000000	360.569543	405.906007	9.676866	-25.000000	
4.4600	-33.546420	-26.082145	33.210933	-109.985418	861.449437	-43.516603	26.583723	-45.000000	40.569974	-45.000000	-45.000000	2051.165460	258.221683	159.290498	38.269837	2158.533858	161.014376	16.725036	14.571945	-3.159105	37.880315	-35.223984	-45.000000	-27.374105	3698.561430	-2980.831822	143.598865	180.000000	360.694368	405.700506	9.761602	-25.000000	
4.4700	-33.411486	-26.245661	33.516059	-108.637790	861.368002	-43.508094	26.639520	-45.000000	40.608881	-45.000000	-45.000000	2051.260236	258.155967	159.224425	37.946658	2158.500889	160.661850	16.665648	14.597067	-3.186884	37.877392	-35.283847	-45.000000	-27.273639	3698.581337	-2980.854833	143.587964	180.000000	360.808747	405.481416	9.865847	-25.000000	
4.4800	-33.258765	-26.422953	33.835611	-107.173969	861.266616	-43.515582	26.690220	-45.000000	40.647682	-45.000000	-45.000000	2051.366021	258.092024	159.157962	37.616894	2158.472326	160.303221	16.596763	14.617078	-3.207646	37.873869	-35.344733	-45.000000	-27.158585	3698.602543	-2980.884779	143.577156	180.000000	360.924911	405.251824	9.988157	-25.000000	
4.4900	-33.104941	-26.600318	34.150640	-105.594992	861.135371	-43.535628	26.720901	-45.000000	40.671864	-45.000000	-45.000000	2051.502796	258.027389	159.105706	37.285738	2158.449674	159.939743	16.530348	14.646315	-3.193314	37.894713	-35.417659	-45.000000	-27.035212	3698.641077	-2980.923432	143.536439	180.000000	361.024607	405.013952	10.127043	-24.999999	
4.5000	-32.941505	-26.786858	34.472824	-103.902263	860.964874	-43.564197	26.734020	-45.000000	40.703173	-45.000000	-45.000000	2051.655869	257.957276	159.068895	36.952468	2158.422118	159.575171	16.459909	14.680487	-3.160009	37.925638	-35.496604	-45.000000	-26.900765	3698.685823	-2980.970104	143.490510	180.000000	361.120465	404.767256	10.281117	-24.999999	
4.5100	-32.774578	-26.977655	34.797477	-102.096541	860.746350	-43.597106	26.730177	-45.000000	40.732510	-45.000000	-45.000000	2051.829915	257.879965	159.049788	36.621763	2158.393343	159.210902	16.386348	14.716855	-3.092902	37.972486	-35.586290	-45.000000	-26.757331	3698.748172	-2981.026546	143.421463	180.000000	361.199833	404.513514	10.451848	-24.999998	
4.5200	-32.588400	-27.186179	35.145418	-100.178256	860.472002	-43.630438	26.718356	-45.000000	40.770340	-45.000000	-45.000000	2052.012726	257.803765	159.042199	36.293131	2158.364237	158.853257	16.307820	14.756237	-3.026415	38.022532	-35.671046	-45.000000	-26.602872	3698.802263	-2981.089724	143.365625	180.000000	361.281577	404.252171	10.634778	-24.999997	
4.5300	-32.393265	-27.403850	35.507559	-98.147062	860.135229	-43.660844	26.700943	-45.000000	40.800870	-45.000000	-45.000000	2052.205329	257.724815	159.040195	35.970947	2158.337560	158.506722	16.225317	14.795689	-2.947950	38.078499	-35.761613	-45.000000	-26.438963	3698.862703	-2981.160454	143.304357	180.000000	361.353596	403.988321	10.831543	-24.999995	
4.5400	-32.169699	-27.647955	35.906961	-96.002943	859.730869	-43.685692	26.701577	-45.000000	40.842749	-45.000000	-45.000000	2052.389914	257.645832	159.033257	35.661988	2158.316795	158.183775	16.136767	14.837920	-2.902656	38.123454	-35.831078	-45.000000	-26.270227	3698.900443	-2981.232987	143.264568	180.000000	361.432046	403.728383	11.039243	-24.999991	
4.5500	-31.925763	-27.909800	36.331237	-93.746674	859.255094	-43.703067	26.710276	-45.000000	40.888000	-45.000000	-45.000000	2052.572620	257.565565	159.023638	35.363809	2158.300164	157.891958	16.045242	14.880806	-2.872646	38.162960	-35.889759	-45.000000	-26.095290	3698.926846	-2981.311206	143.234299	180.000000	361.510256	403.482902	11.255721	-24.999984	
4.5600	-31.658948	-28.188735	36.782700	-91.380804	858.705255	-43.711611	26.719105	-45.000000	40.937687	-45.000000	-45.000000	2052.752883	257.486577	159.011595	35.070655	2158.292048	157.639627	15.949250	14.924836	-2.863899	38.193674	-35.934417	-45.000000	-25.914914	3698.928064	-2981.394916	143.226572	180.000000	361.596692	403.259978	11.476021	-24.999972	
4.5700	-31.380781	-28.478408	37.246037	-88.909741	858.079546	-43.710297	26.714648	-45.000000	40.983494	-45.000000	-45.000000	2052.940859	257.405835	159.001909	34.777463	2158.285425	157.431917	15.854258	14.967778	-2.848463	38.224231	-35.976614	-45.000000	-25.731085	3698.924593	-2981.485714	143.222921	180.000000	361.681462	403.071518	11.697187	-24.999950	
4.5800	-31.078788	-28.790662	37.739462	-86.339817	857.376782	-43.698225	26.741773	-45.000000	41.037393	-45.000000	-45.000000	2053.116013	257.318306	158.982332	34.510394	2158.287282	157.279224	15.760486	15.009164	-2.853612	38.243563	-36.003294	-45.000000	-25.564730	3698.920514	-2981.580490	143.207674	180.000000	361.759356	402.926042	11.920643	-24.999911	
4.5900	-30.756698	-29.125403	38.256320	-83.678505	856.596090	-43.674523	26.777351	-45.000000	41.097327	-45.000000	-45.000000	2053.290546	257.227333	158.964354	34.258542	2158.288301	157.184476	15.671912	15.047560	-2.859736	38.260471	-36.017792	-45.000000	-25.406555	3698.922791	-2981.680241	143.185485	180.000000	361.830000	402.829168	12.140312	-24.999841	
4.6000	-30.411855	-29.483612	38.804184	-80.933774	855.736902	-43.638388	26.842265	-45.000000	41.162189	-45.000000	-45.000000	2053.452357	257.129358	158.940388	34.033409	2158.296779	157.151411	15.584068	15.084907	-2.886197	38.271063	-36.017116	-45.000000	-25.251154	3698.935285	-2981.785238	143.152773	180.000000	361.891558	402.782469	12.356997	-24.999714	
4.6100	-30.061343	-29.852155	39.358532	-78.113142	854.798789	-43.589144	26.885500	-45.000000	41.215617	-45.000000	-45.000000	2053.625310	257.029320	158.923598	33.805132	2158.307630	157.178053	15.495640	15.121147	-2.902313	38.288925	-36.018854	-45.000000	-25.067730	3698.958459	-2981.901710	143.131235	180.000000	361.943633	402.791875	12.562705	-24.999489	
4.6200	-29.701789	-30.232085	39.927769	-75.223256	853.781578	-43.526431	26.934490	-45.000000	41.263048	-45.000000	-45.000000	2053.793643	256.920578	158.906359	33.592188	2158.328175	157.267499	15.402864	15.158476	-2.931163	38.306841	-36.015949	-45.000000	-24.857242	3698.991852	-2982.028994	143.112532	180.000000	361.976882	402.859343	12.760336	-24.999084	
4.6300	-29.340624	-30.616054	40.500992	-72.269397	852.685034	-43.450060	26.951058	-45.000000	41.299189	-45.000000	-45.000000	2053.976737	256.810550	158.907326	33.381195	2158.349265	157.413904	15.309146	15.193884	-2.941787	38.337592	-36.018204	-45.000000	-24.605690	3699.038354	-2982.171616	143.106403	180.000000	361.989000	402.978666	12.943879	-24.998360	
